<mxfile host="app.diagrams.net" modified="2021-02-19T18:10:47.141Z" agent="5.0 (Windows NT 10.0; Win64; x64) AppleWebKit/537.36 (KHTML, like Gecko) Chrome/88.0.4324.182 Safari/537.36" etag="-RcAyHkbONFKAWdx-kzG" version="14.4.2" type="github" pages="2">
  <diagram name="Page-1" id="2c0d36ab-eaac-3732-788b-9136903baeff">
    <mxGraphModel dx="1185" dy="669" grid="1" gridSize="10" guides="1" tooltips="1" connect="1" arrows="1" fold="1" page="1" pageScale="1.5" pageWidth="1169" pageHeight="827" background="#ffffff" math="0" shadow="0">
      <root>
        <mxCell id="0" />
        <mxCell id="1" parent="0" />
        <mxCell id="18bI2Gpv_D0XGbEQlD2E-140" style="edgeStyle=orthogonalEdgeStyle;rounded=0;orthogonalLoop=1;jettySize=auto;html=1;entryX=0.5;entryY=0;entryDx=0;entryDy=0;" edge="1" parent="1" source="18bI2Gpv_D0XGbEQlD2E-123" target="18bI2Gpv_D0XGbEQlD2E-125">
          <mxGeometry relative="1" as="geometry" />
        </mxCell>
        <mxCell id="18bI2Gpv_D0XGbEQlD2E-141" style="edgeStyle=orthogonalEdgeStyle;rounded=0;orthogonalLoop=1;jettySize=auto;html=1;" edge="1" parent="1" source="18bI2Gpv_D0XGbEQlD2E-123" target="18bI2Gpv_D0XGbEQlD2E-124">
          <mxGeometry relative="1" as="geometry" />
        </mxCell>
        <mxCell id="18bI2Gpv_D0XGbEQlD2E-123" value="Старт" style="rounded=0;whiteSpace=wrap;html=1;" vertex="1" parent="1">
          <mxGeometry x="680" y="120" width="120" height="40" as="geometry" />
        </mxCell>
        <mxCell id="18bI2Gpv_D0XGbEQlD2E-143" style="edgeStyle=orthogonalEdgeStyle;rounded=0;orthogonalLoop=1;jettySize=auto;html=1;" edge="1" parent="1" source="18bI2Gpv_D0XGbEQlD2E-124" target="18bI2Gpv_D0XGbEQlD2E-126">
          <mxGeometry relative="1" as="geometry" />
        </mxCell>
        <mxCell id="18bI2Gpv_D0XGbEQlD2E-124" value="Найти готового помочь" style="rounded=0;whiteSpace=wrap;html=1;" vertex="1" parent="1">
          <mxGeometry x="760" y="200" width="120" height="40" as="geometry" />
        </mxCell>
        <mxCell id="18bI2Gpv_D0XGbEQlD2E-142" style="edgeStyle=orthogonalEdgeStyle;rounded=0;orthogonalLoop=1;jettySize=auto;html=1;" edge="1" parent="1" source="18bI2Gpv_D0XGbEQlD2E-125" target="18bI2Gpv_D0XGbEQlD2E-130">
          <mxGeometry relative="1" as="geometry" />
        </mxCell>
        <mxCell id="18bI2Gpv_D0XGbEQlD2E-125" value="Моя помощь другим" style="rounded=0;whiteSpace=wrap;html=1;" vertex="1" parent="1">
          <mxGeometry x="600" y="200" width="120" height="40" as="geometry" />
        </mxCell>
        <mxCell id="18bI2Gpv_D0XGbEQlD2E-144" style="edgeStyle=orthogonalEdgeStyle;rounded=0;orthogonalLoop=1;jettySize=auto;html=1;" edge="1" parent="1" source="18bI2Gpv_D0XGbEQlD2E-126" target="18bI2Gpv_D0XGbEQlD2E-127">
          <mxGeometry relative="1" as="geometry" />
        </mxCell>
        <mxCell id="18bI2Gpv_D0XGbEQlD2E-126" value="Ввести институт" style="rounded=0;whiteSpace=wrap;html=1;" vertex="1" parent="1">
          <mxGeometry x="760" y="260" width="120" height="40" as="geometry" />
        </mxCell>
        <mxCell id="18bI2Gpv_D0XGbEQlD2E-145" style="edgeStyle=orthogonalEdgeStyle;rounded=0;orthogonalLoop=1;jettySize=auto;html=1;exitX=0.5;exitY=1;exitDx=0;exitDy=0;" edge="1" parent="1" source="18bI2Gpv_D0XGbEQlD2E-127" target="18bI2Gpv_D0XGbEQlD2E-128">
          <mxGeometry relative="1" as="geometry" />
        </mxCell>
        <mxCell id="18bI2Gpv_D0XGbEQlD2E-127" value="Ввести семестр" style="rounded=0;whiteSpace=wrap;html=1;" vertex="1" parent="1">
          <mxGeometry x="760" y="320" width="120" height="40" as="geometry" />
        </mxCell>
        <mxCell id="18bI2Gpv_D0XGbEQlD2E-146" style="edgeStyle=orthogonalEdgeStyle;rounded=0;orthogonalLoop=1;jettySize=auto;html=1;exitX=0.5;exitY=1;exitDx=0;exitDy=0;" edge="1" parent="1" source="18bI2Gpv_D0XGbEQlD2E-128" target="18bI2Gpv_D0XGbEQlD2E-129">
          <mxGeometry relative="1" as="geometry" />
        </mxCell>
        <mxCell id="18bI2Gpv_D0XGbEQlD2E-128" value="Ввести предмет" style="rounded=0;whiteSpace=wrap;html=1;" vertex="1" parent="1">
          <mxGeometry x="760" y="380" width="120" height="40" as="geometry" />
        </mxCell>
        <mxCell id="18bI2Gpv_D0XGbEQlD2E-162" style="edgeStyle=orthogonalEdgeStyle;rounded=0;orthogonalLoop=1;jettySize=auto;html=1;entryX=0.5;entryY=0;entryDx=0;entryDy=0;" edge="1" parent="1" source="18bI2Gpv_D0XGbEQlD2E-129" target="18bI2Gpv_D0XGbEQlD2E-123">
          <mxGeometry relative="1" as="geometry">
            <Array as="points">
              <mxPoint x="900" y="460" />
              <mxPoint x="900" y="100" />
              <mxPoint x="740" y="100" />
            </Array>
          </mxGeometry>
        </mxCell>
        <mxCell id="18bI2Gpv_D0XGbEQlD2E-129" value="Отображение результата" style="rounded=0;whiteSpace=wrap;html=1;" vertex="1" parent="1">
          <mxGeometry x="760" y="440" width="120" height="40" as="geometry" />
        </mxCell>
        <mxCell id="18bI2Gpv_D0XGbEQlD2E-148" style="edgeStyle=orthogonalEdgeStyle;rounded=0;orthogonalLoop=1;jettySize=auto;html=1;exitX=0.5;exitY=1;exitDx=0;exitDy=0;entryX=0.5;entryY=0;entryDx=0;entryDy=0;" edge="1" parent="1" source="18bI2Gpv_D0XGbEQlD2E-130" target="18bI2Gpv_D0XGbEQlD2E-132">
          <mxGeometry relative="1" as="geometry" />
        </mxCell>
        <mxCell id="18bI2Gpv_D0XGbEQlD2E-158" style="edgeStyle=orthogonalEdgeStyle;rounded=0;orthogonalLoop=1;jettySize=auto;html=1;" edge="1" parent="1" source="18bI2Gpv_D0XGbEQlD2E-130" target="18bI2Gpv_D0XGbEQlD2E-131">
          <mxGeometry relative="1" as="geometry" />
        </mxCell>
        <mxCell id="18bI2Gpv_D0XGbEQlD2E-130" value="Проверка: заригестрирован или нет" style="rounded=0;whiteSpace=wrap;html=1;" vertex="1" parent="1">
          <mxGeometry x="600" y="260" width="120" height="40" as="geometry" />
        </mxCell>
        <mxCell id="18bI2Gpv_D0XGbEQlD2E-163" style="edgeStyle=orthogonalEdgeStyle;rounded=0;orthogonalLoop=1;jettySize=auto;html=1;" edge="1" parent="1" source="18bI2Gpv_D0XGbEQlD2E-131" target="18bI2Gpv_D0XGbEQlD2E-159">
          <mxGeometry relative="1" as="geometry" />
        </mxCell>
        <mxCell id="18bI2Gpv_D0XGbEQlD2E-131" value="Мой статус" style="rounded=0;whiteSpace=wrap;html=1;" vertex="1" parent="1">
          <mxGeometry x="310" y="320" width="120" height="40" as="geometry" />
        </mxCell>
        <mxCell id="18bI2Gpv_D0XGbEQlD2E-149" style="edgeStyle=orthogonalEdgeStyle;rounded=0;orthogonalLoop=1;jettySize=auto;html=1;exitX=0.5;exitY=1;exitDx=0;exitDy=0;" edge="1" parent="1" source="18bI2Gpv_D0XGbEQlD2E-132" target="18bI2Gpv_D0XGbEQlD2E-133">
          <mxGeometry relative="1" as="geometry" />
        </mxCell>
        <mxCell id="18bI2Gpv_D0XGbEQlD2E-156" style="edgeStyle=orthogonalEdgeStyle;rounded=0;orthogonalLoop=1;jettySize=auto;html=1;" edge="1" parent="1" source="18bI2Gpv_D0XGbEQlD2E-132" target="18bI2Gpv_D0XGbEQlD2E-134">
          <mxGeometry relative="1" as="geometry" />
        </mxCell>
        <mxCell id="18bI2Gpv_D0XGbEQlD2E-132" value="Отобразить список предметов" style="rounded=0;whiteSpace=wrap;html=1;" vertex="1" parent="1">
          <mxGeometry x="600" y="320" width="120" height="40" as="geometry" />
        </mxCell>
        <mxCell id="18bI2Gpv_D0XGbEQlD2E-150" style="edgeStyle=orthogonalEdgeStyle;rounded=0;orthogonalLoop=1;jettySize=auto;html=1;exitX=0.5;exitY=1;exitDx=0;exitDy=0;" edge="1" parent="1" source="18bI2Gpv_D0XGbEQlD2E-133" target="18bI2Gpv_D0XGbEQlD2E-135">
          <mxGeometry relative="1" as="geometry" />
        </mxCell>
        <mxCell id="18bI2Gpv_D0XGbEQlD2E-133" value="Добавить предмет" style="rounded=0;whiteSpace=wrap;html=1;" vertex="1" parent="1">
          <mxGeometry x="600" y="380" width="120" height="40" as="geometry" />
        </mxCell>
        <mxCell id="18bI2Gpv_D0XGbEQlD2E-157" style="edgeStyle=orthogonalEdgeStyle;rounded=0;orthogonalLoop=1;jettySize=auto;html=1;entryX=0.5;entryY=0;entryDx=0;entryDy=0;" edge="1" parent="1" source="18bI2Gpv_D0XGbEQlD2E-134" target="18bI2Gpv_D0XGbEQlD2E-138">
          <mxGeometry relative="1" as="geometry" />
        </mxCell>
        <mxCell id="18bI2Gpv_D0XGbEQlD2E-134" value="Удалить предмет" style="rounded=0;whiteSpace=wrap;html=1;" vertex="1" parent="1">
          <mxGeometry x="450" y="380" width="120" height="40" as="geometry" />
        </mxCell>
        <mxCell id="18bI2Gpv_D0XGbEQlD2E-151" style="edgeStyle=orthogonalEdgeStyle;rounded=0;orthogonalLoop=1;jettySize=auto;html=1;exitX=0.5;exitY=1;exitDx=0;exitDy=0;entryX=0.5;entryY=0;entryDx=0;entryDy=0;" edge="1" parent="1" source="18bI2Gpv_D0XGbEQlD2E-135" target="18bI2Gpv_D0XGbEQlD2E-136">
          <mxGeometry relative="1" as="geometry" />
        </mxCell>
        <mxCell id="18bI2Gpv_D0XGbEQlD2E-135" value="Ввести институт" style="rounded=0;whiteSpace=wrap;html=1;" vertex="1" parent="1">
          <mxGeometry x="600" y="440" width="120" height="40" as="geometry" />
        </mxCell>
        <mxCell id="18bI2Gpv_D0XGbEQlD2E-153" style="edgeStyle=orthogonalEdgeStyle;rounded=0;orthogonalLoop=1;jettySize=auto;html=1;exitX=0.5;exitY=1;exitDx=0;exitDy=0;entryX=0.5;entryY=0;entryDx=0;entryDy=0;" edge="1" parent="1" source="18bI2Gpv_D0XGbEQlD2E-136" target="18bI2Gpv_D0XGbEQlD2E-137">
          <mxGeometry relative="1" as="geometry" />
        </mxCell>
        <mxCell id="18bI2Gpv_D0XGbEQlD2E-136" value="Ввести семестр" style="rounded=0;whiteSpace=wrap;html=1;" vertex="1" parent="1">
          <mxGeometry x="600" y="500" width="120" height="40" as="geometry" />
        </mxCell>
        <mxCell id="18bI2Gpv_D0XGbEQlD2E-154" style="edgeStyle=orthogonalEdgeStyle;rounded=0;orthogonalLoop=1;jettySize=auto;html=1;exitX=0.5;exitY=1;exitDx=0;exitDy=0;entryX=1;entryY=0.5;entryDx=0;entryDy=0;" edge="1" parent="1" source="18bI2Gpv_D0XGbEQlD2E-137" target="18bI2Gpv_D0XGbEQlD2E-132">
          <mxGeometry relative="1" as="geometry">
            <Array as="points">
              <mxPoint x="660" y="620" />
              <mxPoint x="740" y="620" />
              <mxPoint x="740" y="340" />
            </Array>
          </mxGeometry>
        </mxCell>
        <mxCell id="18bI2Gpv_D0XGbEQlD2E-137" value="Ввести предмет" style="rounded=0;whiteSpace=wrap;html=1;" vertex="1" parent="1">
          <mxGeometry x="600" y="560" width="120" height="40" as="geometry" />
        </mxCell>
        <mxCell id="18bI2Gpv_D0XGbEQlD2E-155" style="edgeStyle=orthogonalEdgeStyle;rounded=0;orthogonalLoop=1;jettySize=auto;html=1;" edge="1" parent="1" source="18bI2Gpv_D0XGbEQlD2E-138">
          <mxGeometry relative="1" as="geometry">
            <mxPoint x="660" y="620" as="targetPoint" />
            <Array as="points">
              <mxPoint x="510" y="620" />
            </Array>
          </mxGeometry>
        </mxCell>
        <mxCell id="18bI2Gpv_D0XGbEQlD2E-138" value="Ввод номера предмета, который нужно удалить" style="rounded=0;whiteSpace=wrap;html=1;" vertex="1" parent="1">
          <mxGeometry x="450" y="440" width="120" height="60" as="geometry" />
        </mxCell>
        <mxCell id="18bI2Gpv_D0XGbEQlD2E-164" style="edgeStyle=orthogonalEdgeStyle;rounded=0;orthogonalLoop=1;jettySize=auto;html=1;entryX=0.5;entryY=0;entryDx=0;entryDy=0;" edge="1" parent="1" source="18bI2Gpv_D0XGbEQlD2E-159" target="18bI2Gpv_D0XGbEQlD2E-161">
          <mxGeometry relative="1" as="geometry" />
        </mxCell>
        <mxCell id="18bI2Gpv_D0XGbEQlD2E-159" value="Проверка статуса" style="rounded=0;whiteSpace=wrap;html=1;" vertex="1" parent="1">
          <mxGeometry x="310" y="380" width="120" height="40" as="geometry" />
        </mxCell>
        <mxCell id="18bI2Gpv_D0XGbEQlD2E-165" style="edgeStyle=orthogonalEdgeStyle;rounded=0;orthogonalLoop=1;jettySize=auto;html=1;entryX=0;entryY=0.5;entryDx=0;entryDy=0;" edge="1" parent="1" source="18bI2Gpv_D0XGbEQlD2E-161" target="18bI2Gpv_D0XGbEQlD2E-125">
          <mxGeometry relative="1" as="geometry">
            <Array as="points">
              <mxPoint x="290" y="460" />
              <mxPoint x="290" y="220" />
            </Array>
          </mxGeometry>
        </mxCell>
        <mxCell id="18bI2Gpv_D0XGbEQlD2E-161" value="Изменить статус на&amp;nbsp;&lt;br&gt;online/offline" style="rounded=0;whiteSpace=wrap;html=1;" vertex="1" parent="1">
          <mxGeometry x="310" y="440" width="120" height="40" as="geometry" />
        </mxCell>
      </root>
    </mxGraphModel>
  </diagram>
  <diagram id="xmp148l-0HZ3-1KYkyfQ" name="Структура БД">
    <mxGraphModel dx="2249" dy="803" grid="1" gridSize="10" guides="1" tooltips="1" connect="1" arrows="1" fold="1" page="1" pageScale="1" pageWidth="827" pageHeight="1169" math="0" shadow="0">
      <root>
        <mxCell id="_WCKPDGFkMjcrODgfdkk-0" />
        <mxCell id="_WCKPDGFkMjcrODgfdkk-1" parent="_WCKPDGFkMjcrODgfdkk-0" />
        <mxCell id="_WCKPDGFkMjcrODgfdkk-2" value="Структура бд" style="text;html=1;strokeColor=none;fillColor=none;align=center;verticalAlign=middle;whiteSpace=wrap;rounded=0;" parent="_WCKPDGFkMjcrODgfdkk-1" vertex="1">
          <mxGeometry x="100" y="30" width="190" height="20" as="geometry" />
        </mxCell>
        <mxCell id="_WCKPDGFkMjcrODgfdkk-11" style="edgeStyle=orthogonalEdgeStyle;rounded=0;orthogonalLoop=1;jettySize=auto;html=1;entryX=0;entryY=0.5;entryDx=0;entryDy=0;" parent="_WCKPDGFkMjcrODgfdkk-1" source="_WCKPDGFkMjcrODgfdkk-6" target="_WCKPDGFkMjcrODgfdkk-8" edge="1">
          <mxGeometry relative="1" as="geometry" />
        </mxCell>
        <mxCell id="riAXjel8Z0QGoho-0wW--1" style="edgeStyle=orthogonalEdgeStyle;rounded=0;orthogonalLoop=1;jettySize=auto;html=1;entryX=0;entryY=0.5;entryDx=0;entryDy=0;" parent="_WCKPDGFkMjcrODgfdkk-1" source="_WCKPDGFkMjcrODgfdkk-6" target="riAXjel8Z0QGoho-0wW--0" edge="1">
          <mxGeometry relative="1" as="geometry" />
        </mxCell>
        <mxCell id="riAXjel8Z0QGoho-0wW--2" style="edgeStyle=orthogonalEdgeStyle;rounded=0;orthogonalLoop=1;jettySize=auto;html=1;entryX=0;entryY=0.5;entryDx=0;entryDy=0;" parent="_WCKPDGFkMjcrODgfdkk-1" source="_WCKPDGFkMjcrODgfdkk-6" target="_WCKPDGFkMjcrODgfdkk-7" edge="1">
          <mxGeometry relative="1" as="geometry" />
        </mxCell>
        <mxCell id="od5x0pfxAyM6NbwkPHwQ-3" style="edgeStyle=orthogonalEdgeStyle;rounded=0;orthogonalLoop=1;jettySize=auto;html=1;entryX=0;entryY=0.5;entryDx=0;entryDy=0;" edge="1" parent="_WCKPDGFkMjcrODgfdkk-1" source="_WCKPDGFkMjcrODgfdkk-6" target="od5x0pfxAyM6NbwkPHwQ-2">
          <mxGeometry relative="1" as="geometry" />
        </mxCell>
        <mxCell id="_WCKPDGFkMjcrODgfdkk-6" value="Пользователь" style="rounded=0;whiteSpace=wrap;html=1;" parent="_WCKPDGFkMjcrODgfdkk-1" vertex="1">
          <mxGeometry x="55" y="200" width="120" height="40" as="geometry" />
        </mxCell>
        <mxCell id="_WCKPDGFkMjcrODgfdkk-7" value="Статус(Bol)" style="rounded=0;whiteSpace=wrap;html=1;" parent="_WCKPDGFkMjcrODgfdkk-1" vertex="1">
          <mxGeometry x="215" y="140" width="120" height="40" as="geometry" />
        </mxCell>
        <mxCell id="_WCKPDGFkMjcrODgfdkk-8" value="Отображаемое имя" style="rounded=0;whiteSpace=wrap;html=1;" parent="_WCKPDGFkMjcrODgfdkk-1" vertex="1">
          <mxGeometry x="215" y="240" width="120" height="40" as="geometry" />
        </mxCell>
        <mxCell id="_WCKPDGFkMjcrODgfdkk-12" value="Класс" style="text;html=1;strokeColor=none;fillColor=none;align=center;verticalAlign=middle;whiteSpace=wrap;rounded=0;" parent="_WCKPDGFkMjcrODgfdkk-1" vertex="1">
          <mxGeometry x="90" y="60" width="40" height="20" as="geometry" />
        </mxCell>
        <mxCell id="_WCKPDGFkMjcrODgfdkk-13" value="Поля" style="text;html=1;strokeColor=none;fillColor=none;align=center;verticalAlign=middle;whiteSpace=wrap;rounded=0;" parent="_WCKPDGFkMjcrODgfdkk-1" vertex="1">
          <mxGeometry x="258" y="60" width="40" height="20" as="geometry" />
        </mxCell>
        <mxCell id="_WCKPDGFkMjcrODgfdkk-20" style="edgeStyle=orthogonalEdgeStyle;rounded=0;orthogonalLoop=1;jettySize=auto;html=1;exitX=1;exitY=0.5;exitDx=0;exitDy=0;" parent="_WCKPDGFkMjcrODgfdkk-1" source="_WCKPDGFkMjcrODgfdkk-14" target="_WCKPDGFkMjcrODgfdkk-15" edge="1">
          <mxGeometry relative="1" as="geometry" />
        </mxCell>
        <mxCell id="_WCKPDGFkMjcrODgfdkk-21" style="edgeStyle=orthogonalEdgeStyle;rounded=0;orthogonalLoop=1;jettySize=auto;html=1;entryX=0;entryY=0.5;entryDx=0;entryDy=0;" parent="_WCKPDGFkMjcrODgfdkk-1" source="_WCKPDGFkMjcrODgfdkk-14" target="_WCKPDGFkMjcrODgfdkk-17" edge="1">
          <mxGeometry relative="1" as="geometry" />
        </mxCell>
        <mxCell id="od5x0pfxAyM6NbwkPHwQ-1" style="edgeStyle=orthogonalEdgeStyle;rounded=0;orthogonalLoop=1;jettySize=auto;html=1;entryX=0;entryY=0.5;entryDx=0;entryDy=0;" edge="1" parent="_WCKPDGFkMjcrODgfdkk-1" source="_WCKPDGFkMjcrODgfdkk-14" target="od5x0pfxAyM6NbwkPHwQ-0">
          <mxGeometry relative="1" as="geometry" />
        </mxCell>
        <mxCell id="_WCKPDGFkMjcrODgfdkk-14" value="Предмет" style="rounded=0;whiteSpace=wrap;html=1;" parent="_WCKPDGFkMjcrODgfdkk-1" vertex="1">
          <mxGeometry x="55" y="354" width="120" height="40" as="geometry" />
        </mxCell>
        <mxCell id="_WCKPDGFkMjcrODgfdkk-15" value="Отображаемое имя" style="rounded=0;whiteSpace=wrap;html=1;" parent="_WCKPDGFkMjcrODgfdkk-1" vertex="1">
          <mxGeometry x="215" y="354" width="120" height="40" as="geometry" />
        </mxCell>
        <mxCell id="_WCKPDGFkMjcrODgfdkk-17" value="Массив пользователей" style="rounded=0;whiteSpace=wrap;html=1;" parent="_WCKPDGFkMjcrODgfdkk-1" vertex="1">
          <mxGeometry x="215" y="404" width="120" height="40" as="geometry" />
        </mxCell>
        <mxCell id="_WCKPDGFkMjcrODgfdkk-25" style="edgeStyle=orthogonalEdgeStyle;rounded=0;orthogonalLoop=1;jettySize=auto;html=1;entryX=0;entryY=0.5;entryDx=0;entryDy=0;" parent="_WCKPDGFkMjcrODgfdkk-1" source="_WCKPDGFkMjcrODgfdkk-22" target="_WCKPDGFkMjcrODgfdkk-23" edge="1">
          <mxGeometry relative="1" as="geometry" />
        </mxCell>
        <mxCell id="_WCKPDGFkMjcrODgfdkk-26" style="edgeStyle=orthogonalEdgeStyle;rounded=0;orthogonalLoop=1;jettySize=auto;html=1;entryX=0;entryY=0.5;entryDx=0;entryDy=0;" parent="_WCKPDGFkMjcrODgfdkk-1" source="_WCKPDGFkMjcrODgfdkk-22" target="_WCKPDGFkMjcrODgfdkk-24" edge="1">
          <mxGeometry relative="1" as="geometry" />
        </mxCell>
        <mxCell id="_WCKPDGFkMjcrODgfdkk-22" value="Семестр" style="rounded=0;whiteSpace=wrap;html=1;" parent="_WCKPDGFkMjcrODgfdkk-1" vertex="1">
          <mxGeometry x="55" y="474" width="120" height="40" as="geometry" />
        </mxCell>
        <mxCell id="_WCKPDGFkMjcrODgfdkk-23" value="Номер курса" style="rounded=0;whiteSpace=wrap;html=1;" parent="_WCKPDGFkMjcrODgfdkk-1" vertex="1">
          <mxGeometry x="215" y="474" width="120" height="40" as="geometry" />
        </mxCell>
        <mxCell id="_WCKPDGFkMjcrODgfdkk-24" value="Массив Предметов" style="rounded=0;whiteSpace=wrap;html=1;" parent="_WCKPDGFkMjcrODgfdkk-1" vertex="1">
          <mxGeometry x="215" y="524" width="120" height="40" as="geometry" />
        </mxCell>
        <mxCell id="_WCKPDGFkMjcrODgfdkk-27" style="edgeStyle=orthogonalEdgeStyle;rounded=0;orthogonalLoop=1;jettySize=auto;html=1;entryX=0;entryY=0.5;entryDx=0;entryDy=0;" parent="_WCKPDGFkMjcrODgfdkk-1" source="_WCKPDGFkMjcrODgfdkk-29" target="_WCKPDGFkMjcrODgfdkk-30" edge="1">
          <mxGeometry relative="1" as="geometry" />
        </mxCell>
        <mxCell id="_WCKPDGFkMjcrODgfdkk-28" style="edgeStyle=orthogonalEdgeStyle;rounded=0;orthogonalLoop=1;jettySize=auto;html=1;entryX=0;entryY=0.5;entryDx=0;entryDy=0;" parent="_WCKPDGFkMjcrODgfdkk-1" source="_WCKPDGFkMjcrODgfdkk-29" target="_WCKPDGFkMjcrODgfdkk-31" edge="1">
          <mxGeometry relative="1" as="geometry" />
        </mxCell>
        <mxCell id="_WCKPDGFkMjcrODgfdkk-29" value="Институт" style="rounded=0;whiteSpace=wrap;html=1;" parent="_WCKPDGFkMjcrODgfdkk-1" vertex="1">
          <mxGeometry x="55" y="594" width="120" height="40" as="geometry" />
        </mxCell>
        <mxCell id="_WCKPDGFkMjcrODgfdkk-30" value="Отображаемое имя" style="rounded=0;whiteSpace=wrap;html=1;" parent="_WCKPDGFkMjcrODgfdkk-1" vertex="1">
          <mxGeometry x="215" y="594" width="120" height="40" as="geometry" />
        </mxCell>
        <mxCell id="_WCKPDGFkMjcrODgfdkk-31" value="Массив Семестров" style="rounded=0;whiteSpace=wrap;html=1;" parent="_WCKPDGFkMjcrODgfdkk-1" vertex="1">
          <mxGeometry x="215" y="644" width="120" height="40" as="geometry" />
        </mxCell>
        <mxCell id="_WCKPDGFkMjcrODgfdkk-32" value="" style="endArrow=classic;html=1;" parent="_WCKPDGFkMjcrODgfdkk-1" edge="1">
          <mxGeometry width="50" height="50" relative="1" as="geometry">
            <mxPoint x="1" y="90" as="sourcePoint" />
            <mxPoint x="1" y="350" as="targetPoint" />
          </mxGeometry>
        </mxCell>
        <mxCell id="_WCKPDGFkMjcrODgfdkk-33" value="" style="endArrow=classic;html=1;" parent="_WCKPDGFkMjcrODgfdkk-1" edge="1">
          <mxGeometry width="50" height="50" relative="1" as="geometry">
            <mxPoint x="1" y="350" as="sourcePoint" />
            <mxPoint x="1" y="600" as="targetPoint" />
          </mxGeometry>
        </mxCell>
        <mxCell id="_WCKPDGFkMjcrODgfdkk-39" style="edgeStyle=orthogonalEdgeStyle;rounded=0;orthogonalLoop=1;jettySize=auto;html=1;entryX=0;entryY=0.5;entryDx=0;entryDy=0;exitX=1;exitY=0.5;exitDx=0;exitDy=0;" parent="_WCKPDGFkMjcrODgfdkk-1" source="_WCKPDGFkMjcrODgfdkk-24" target="_WCKPDGFkMjcrODgfdkk-14" edge="1">
          <mxGeometry relative="1" as="geometry" />
        </mxCell>
        <mxCell id="_WCKPDGFkMjcrODgfdkk-34" value="С низу в верх" style="text;html=1;strokeColor=none;fillColor=none;align=center;verticalAlign=middle;whiteSpace=wrap;rounded=0;rotation=-90;" parent="_WCKPDGFkMjcrODgfdkk-1" vertex="1">
          <mxGeometry x="-69" y="350" width="106" height="20" as="geometry" />
        </mxCell>
        <mxCell id="_WCKPDGFkMjcrODgfdkk-41" style="edgeStyle=orthogonalEdgeStyle;rounded=0;orthogonalLoop=1;jettySize=auto;html=1;exitX=1;exitY=0.5;exitDx=0;exitDy=0;entryX=0;entryY=0.5;entryDx=0;entryDy=0;" parent="_WCKPDGFkMjcrODgfdkk-1" source="_WCKPDGFkMjcrODgfdkk-17" target="_WCKPDGFkMjcrODgfdkk-6" edge="1">
          <mxGeometry relative="1" as="geometry">
            <mxPoint x="315" y="390" as="sourcePoint" />
            <mxPoint x="35" y="220" as="targetPoint" />
            <Array as="points">
              <mxPoint x="355" y="433" />
              <mxPoint x="355" y="290" />
              <mxPoint x="35" y="290" />
              <mxPoint x="35" y="220" />
            </Array>
          </mxGeometry>
        </mxCell>
        <mxCell id="_WCKPDGFkMjcrODgfdkk-44" style="edgeStyle=orthogonalEdgeStyle;rounded=0;orthogonalLoop=1;jettySize=auto;html=1;entryX=0;entryY=0.5;entryDx=0;entryDy=0;exitX=1;exitY=0.5;exitDx=0;exitDy=0;" parent="_WCKPDGFkMjcrODgfdkk-1" source="_WCKPDGFkMjcrODgfdkk-31" target="_WCKPDGFkMjcrODgfdkk-22" edge="1">
          <mxGeometry relative="1" as="geometry">
            <mxPoint x="315" y="664" as="sourcePoint" />
            <mxPoint x="35" y="494" as="targetPoint" />
          </mxGeometry>
        </mxCell>
        <mxCell id="riAXjel8Z0QGoho-0wW--0" value="ВК айди" style="rounded=0;whiteSpace=wrap;html=1;" parent="_WCKPDGFkMjcrODgfdkk-1" vertex="1">
          <mxGeometry x="215" y="190" width="120" height="40" as="geometry" />
        </mxCell>
        <mxCell id="od5x0pfxAyM6NbwkPHwQ-0" value="Айди предмета" style="rounded=0;whiteSpace=wrap;html=1;" vertex="1" parent="_WCKPDGFkMjcrODgfdkk-1">
          <mxGeometry x="215" y="301" width="120" height="40" as="geometry" />
        </mxCell>
        <mxCell id="od5x0pfxAyM6NbwkPHwQ-2" value="Массив с айди предметов&amp;nbsp;" style="rounded=0;whiteSpace=wrap;html=1;" vertex="1" parent="_WCKPDGFkMjcrODgfdkk-1">
          <mxGeometry x="215" y="90" width="120" height="40" as="geometry" />
        </mxCell>
      </root>
    </mxGraphModel>
  </diagram>
</mxfile>
